<svg xmlns="http://www.w3.org/2000/svg" width="60" height="60" viewBox="0 0 60 60"><defs><style>.a{fill:#324e6f;}</style></defs><g transform="translate(-701 -1236)"><g transform="translate(701 1236)"><g transform="translate(23.953)"><path class="a" d="M46.047,0a6.047,6.047,0,1,0,6.047,6.047A6.047,6.047,0,0,0,46.047,0Zm0,10.078a4.031,4.031,0,1,1,4.031-4.031A4.031,4.031,0,0,1,46.047,10.078Z" transform="translate(-40)"/></g><g transform="translate(20.929 12.969)"><path class="a" d="M48.1,21.667h-.238l-.213.106a8.034,8.034,0,0,1-7.162,0l-.213-.106h-.238A5.045,5.045,0,0,0,35,26.706v6.047a3.023,3.023,0,0,0,3.024,3.024H50.118a3.023,3.023,0,0,0,3.024-3.024V26.706A5.045,5.045,0,0,0,48.1,21.667Zm3.024,11.086a1.008,1.008,0,0,1-1.008,1.008H38.024a1.008,1.008,0,0,1-1.008-1.008V26.706a3.023,3.023,0,0,1,2.809-3.015,10.086,10.086,0,0,0,8.492,0,3.024,3.024,0,0,1,2.809,3.015Z" transform="translate(-35 -21.667)"/></g><g transform="translate(44.882 32.935)"><path class="a" d="M81.047,55a6.047,6.047,0,1,0,6.047,6.047A6.047,6.047,0,0,0,81.047,55Zm0,10.078a4.031,4.031,0,1,1,4.031-4.031A4.031,4.031,0,0,1,81.047,65.078Z" transform="translate(-75 -55)"/></g><g transform="translate(41.859 45.89)"><path class="a" d="M83.1,76.667h-.238l-.213.1a8.035,8.035,0,0,1-7.162,0l-.213-.1h-.238A5.045,5.045,0,0,0,70,81.706v6.047a3.023,3.023,0,0,0,3.024,3.024H85.118a3.023,3.023,0,0,0,3.024-3.024V81.706A5.045,5.045,0,0,0,83.1,76.667Zm3.024,11.086a1.008,1.008,0,0,1-1.008,1.008H73.024a1.008,1.008,0,0,1-1.008-1.008V81.706a3.024,3.024,0,0,1,2.809-3.015,10.086,10.086,0,0,0,8.492,0,3.024,3.024,0,0,1,2.809,3.015Z" transform="translate(-70 -76.667)"/></g><g transform="translate(3.024 32.935)"><path class="a" d="M11.047,55a6.047,6.047,0,1,0,6.047,6.047A6.047,6.047,0,0,0,11.047,55Zm0,10.078a4.031,4.031,0,1,1,4.031-4.031A4.031,4.031,0,0,1,11.047,65.078Z" transform="translate(-5 -55)"/></g><g transform="translate(0 45.89)"><path class="a" d="M13.1,76.667h-.238l-.213.1a8.035,8.035,0,0,1-7.162,0l-.213-.1H5.039A5.045,5.045,0,0,0,0,81.706v6.047a3.023,3.023,0,0,0,3.024,3.024H15.118a3.023,3.023,0,0,0,3.024-3.024V81.706A5.045,5.045,0,0,0,13.1,76.667Zm3.024,11.086a1.008,1.008,0,0,1-1.008,1.008H3.024a1.008,1.008,0,0,1-1.008-1.008V81.706A3.024,3.024,0,0,1,4.825,78.69a10.086,10.086,0,0,0,8.492,0,3.024,3.024,0,0,1,2.809,3.015Z" transform="translate(0 -76.667)"/></g><g transform="translate(19.921 48.913)"><path class="a" d="M53.411,83.465l0,0a1.008,1.008,0,0,0-1.322-.532h0a22.356,22.356,0,0,1-14.375.99l.943-.277a1.008,1.008,0,1,0-.566-1.935l-4.031,1.182c-.015,0-.026.017-.04.022a1,1,0,0,0-.26.144.878.878,0,0,0-.1.063.976.976,0,0,0-.247.343,1.009,1.009,0,0,0-.077.416,3.108,3.108,0,0,0,.1.4c.006.014,0,.03.011.044l2.016,3.857a1.008,1.008,0,0,0,1.788-.933l-.82-1.568a24.259,24.259,0,0,0,16.447-.895A1.008,1.008,0,0,0,53.411,83.465Z" transform="translate(-33.333 -81.666)"/></g><g transform="translate(37.827 7.889)"><path class="a" d="M82.187,31.656a1.008,1.008,0,0,0-1.425,0l-1.426,1.426a24.152,24.152,0,0,0-14.6-19.955,1.008,1.008,0,0,0-.79,1.854A22.139,22.139,0,0,1,77.277,32.793L76.14,31.656a1.008,1.008,0,0,0-1.425,1.425L77.738,36.1a1.008,1.008,0,0,0,1.425,0l0,0,3.024-3.024A1.008,1.008,0,0,0,82.187,31.656Z" transform="translate(-63.333 -13.046)"/></g><g transform="translate(6.047 6.064)"><path class="a" d="M26.1,12.691a.937.937,0,0,0-.026-.174c0-.009-.011-.015-.015-.025s0-.017,0-.025a.967.967,0,0,0-.095-.139,1.017,1.017,0,0,0-.115-.166.946.946,0,0,0-.2-.134.886.886,0,0,0-.113-.082L21.5,10.1a1.008,1.008,0,0,0-.837,1.832l2.087.954A24.151,24.151,0,0,0,10,34.2a1.008,1.008,0,1,0,2.016,0A22.138,22.138,0,0,1,22.923,15.107l-.729,1.523a1.008,1.008,0,0,0,.471,1.343.992.992,0,0,0,.436.1,1.008,1.008,0,0,0,.907-.571L26.025,13.3a.046.046,0,0,1,.008-.031.969.969,0,0,0,.054-.214,1.044,1.044,0,0,0,.038-.166A1,1,0,0,0,26.1,12.691Z" transform="translate(-10 -10.028)"/></g></g></g></svg>